<?xml version="1.0" encoding="iso-8859-1"?>
<!-- Generator: Adobe Illustrator 19.0.0, SVG Export Plug-In . SVG Version: 6.00 Build 0)  -->
<svg version="1.1" id="Layer_1" xmlns="http://www.w3.org/2000/svg" xmlns:xlink="http://www.w3.org/1999/xlink" x="0px" y="0px"
	 viewBox="0 0 480 480" style="enable-background:new 0 0 480 480;" xml:space="preserve">
<g>
	<path style="fill:#333333;" d="M408,136h8v-16h-8v-19.312L379.312,72H360v-8h-16v8h-16V0h-16v72h-16V0h-16v72h-16v-8h-16v8h-16v-8
		h-16v8h-16V0h-16v72h-16V0h-16v72h-16v-8h-16v8h-19.312L72,100.688V120h-8v16h8v16H0v16h72v16H0v16h72v16h-8v16h8v16h-8v16h8v16H0
		v16h72v16H0v16h72v16h-8v16h8v19.312L100.688,408H120v8h16v-8h16v72h16v-72h16v72h16v-72h16v8h16v-8h16v8h16v-8h16v72h16v-72h16v72
		h16v-72h16v8h16v-8h19.312L408,379.312V360h8v-16h-8v-16h72v-16h-72v-16h72v-16h-72v-16h8v-16h-8v-16h8v-16h-8v-16h72v-16h-72v-16
		h72v-16h-72V136z M392,372.688L372.688,392H107.312L88,372.688V107.312L107.312,88h265.376L392,107.312V372.688z"/>
	<rect x="32" y="120" style="fill:#333333;" width="16" height="16"/>
	<rect y="120" style="fill:#333333;" width="16" height="16"/>
	<rect y="216" style="fill:#333333;" width="16" height="16"/>
	<rect x="32" y="216" style="fill:#333333;" width="16" height="16"/>
	<rect x="32" y="248" style="fill:#333333;" width="16" height="16"/>
	<rect y="248" style="fill:#333333;" width="16" height="16"/>
	<rect x="32" y="344" style="fill:#333333;" width="16" height="16"/>
	<rect y="344" style="fill:#333333;" width="16" height="16"/>
	<rect x="464" y="120" style="fill:#333333;" width="16" height="16"/>
	<rect x="432" y="120" style="fill:#333333;" width="16" height="16"/>
	<rect x="432" y="216" style="fill:#333333;" width="16" height="16"/>
	<rect x="464" y="216" style="fill:#333333;" width="16" height="16"/>
	<rect x="432" y="248" style="fill:#333333;" width="16" height="16"/>
	<rect x="464" y="248" style="fill:#333333;" width="16" height="16"/>
	<rect x="432" y="344" style="fill:#333333;" width="16" height="16"/>
	<rect x="464" y="344" style="fill:#333333;" width="16" height="16"/>
	<rect x="344" y="32" style="fill:#333333;" width="16" height="16"/>
	<rect x="344" style="fill:#333333;" width="16" height="16"/>
	<rect x="248" style="fill:#333333;" width="16" height="16"/>
	<rect x="248" y="32" style="fill:#333333;" width="16" height="16"/>
	<rect x="216" y="32" style="fill:#333333;" width="16" height="16"/>
	<rect x="216" style="fill:#333333;" width="16" height="16"/>
	<rect x="120" y="32" style="fill:#333333;" width="16" height="16"/>
	<rect x="120" style="fill:#333333;" width="16" height="16"/>
	<rect x="344" y="432" style="fill:#333333;" width="16" height="16"/>
	<rect x="344" y="464" style="fill:#333333;" width="16" height="16"/>
	<rect x="248" y="432" style="fill:#333333;" width="16" height="16"/>
	<rect x="248" y="464" style="fill:#333333;" width="16" height="16"/>
	<rect x="216" y="464" style="fill:#333333;" width="16" height="16"/>
	<rect x="216" y="432" style="fill:#333333;" width="16" height="16"/>
	<rect x="120" y="464" style="fill:#333333;" width="16" height="16"/>
	<rect x="120" y="432" style="fill:#333333;" width="16" height="16"/>
	<path style="fill:#333333;" d="M144,96c-17.648,0-32,14.352-32,32c0,14.872,10.232,27.288,24,30.864V184h16v-25.136
		c13.768-3.576,24-15.992,24-30.864C176,110.352,161.648,96,144,96z M144,144c-8.824,0-16-7.176-16-16s7.176-16,16-16
		s16,7.176,16,16S152.824,144,144,144z"/>
	<path style="fill:#333333;" d="M328,158.864V200h16v-41.136c13.768-3.576,24-15.992,24-30.864c0-17.648-14.352-32-32-32
		s-32,14.352-32,32C304,142.872,314.232,155.288,328,158.864z M336,112c8.824,0,16,7.176,16,16s-7.176,16-16,16s-16-7.176-16-16
		S327.176,112,336,112z"/>
	<path style="fill:#333333;" d="M352,321.136V296h-16v25.136c-13.768,3.576-24,15.992-24,30.864c0,17.648,14.352,32,32,32
		s32-14.352,32-32C376,337.128,365.768,324.712,352,321.136z M344,368c-8.824,0-16-7.176-16-16s7.176-16,16-16s16,7.176,16,16
		S352.824,368,344,368z"/>
	<path style="fill:#333333;" d="M152,321.136V296h-16v25.136c-13.768,3.576-24,15.992-24,30.864c0,17.648,14.352,32,32,32
		s32-14.352,32-32C176,337.128,165.768,324.712,152,321.136z M144,368c-8.824,0-16-7.176-16-16s7.176-16,16-16s16,7.176,16,16
		S152.824,368,144,368z"/>
</g>
<path style="fill:#F9BA48;" d="M328,304H160c-35.288,0-64-28.712-64-64s28.712-64,64-64c6.936,0,13.736,1.112,20.272,3.312
	c9.2-8.976,22.104-13.248,35.256-10.528C228.408,153.168,247.616,144,268,144c30.072,0,56.48,19.928,65.072,48.224
	C361.576,194.8,384,218.832,384,248C384,278.872,358.872,304,328,304z"/>
<g>
</g>
<g>
</g>
<g>
</g>
<g>
</g>
<g>
</g>
<g>
</g>
<g>
</g>
<g>
</g>
<g>
</g>
<g>
</g>
<g>
</g>
<g>
</g>
<g>
</g>
<g>
</g>
<g>
</g>
</svg>
