<?xml version="1.0" encoding="iso-8859-1"?>
<!-- Generator: Adobe Illustrator 19.0.0, SVG Export Plug-In . SVG Version: 6.00 Build 0)  -->
<svg version="1.1" id="Layer_1" xmlns="http://www.w3.org/2000/svg" xmlns:xlink="http://www.w3.org/1999/xlink" x="0px" y="0px"
	 viewBox="0 0 496 496" style="enable-background:new 0 0 496 496;" xml:space="preserve">
<path style="fill:#333333;" d="M423.824,113.432C420.4,50.304,367.96,0,304,0c-43.208,0-83.328,23.752-104.464,61.168
	C192.2,57.776,184.208,56,176,56c-19.608,0-37.688,10.344-47.776,26.848C120.312,80.96,112.192,80,104,80C46.656,80,0,126.656,0,184
	s46.656,104,104,104h8v24c0,13.232,10.768,24,24,24h40v-16h-40c-4.416,0-8-3.584-8-8V144h27.72l16,24H368v144c0,4.416-3.584,8-8,8
	h-40v16h40c13.232,0,24-10.768,24-24v-24h24c48.52,0,88-39.48,88-88C496,156.952,465.44,120.904,423.824,113.432z M408,272h-24V152
	H180.28l-16-24H112v144h-8c-48.52,0-88-39.48-88-88s39.48-88,88-88c8.832,0,17.544,1.312,25.928,3.896l6.744,2.072l2.904-6.424
	C146.048,81.24,160.344,72,176,72c8.016,0,15.744,2.36,22.352,6.832l7.72,5.208l3.984-8.424C227.208,39.4,264.088,16,304,16
	c57.344,0,104,46.656,104.016,103.504l-0.04,8.152l7.208,0.712C452.144,132.024,480,162.824,480,200
	C480,239.704,447.704,272,408,272z"/>
<path style="fill:#F9BA48;" d="M296,432h-96v-56h-88l136-120l136,120h-88V432z"/>
<g>
	<rect x="200" y="448" style="fill:#333333;" width="96" height="16"/>
	<rect x="200" y="480" style="fill:#333333;" width="96" height="16"/>
</g>
<g>
</g>
<g>
</g>
<g>
</g>
<g>
</g>
<g>
</g>
<g>
</g>
<g>
</g>
<g>
</g>
<g>
</g>
<g>
</g>
<g>
</g>
<g>
</g>
<g>
</g>
<g>
</g>
<g>
</g>
</svg>
