<?xml version="1.0" encoding="UTF-8"?>
<svg width="508px" height="508px" viewBox="0 0 508 508" version="1.1" xmlns="http://www.w3.org/2000/svg" xmlns:xlink="http://www.w3.org/1999/xlink">
    <!-- Generator: Sketch 47.1 (45422) - http://www.bohemiancoding.com/sketch -->
    <title>cloud (1)</title>
    <desc>Created with Sketch.</desc>
    <defs>
        <linearGradient x1="13.9030612%" y1="50%" x2="100%" y2="50%" id="linearGradient-1">
            <stop stop-color="#66C23A" offset="0%"></stop>
            <stop stop-color="#5FB636" offset="100%"></stop>
            <stop stop-color="#77D9B1" offset="100%"></stop>
            <stop stop-color="#4BD47F" offset="100%"></stop>
        </linearGradient>
    </defs>
    <g id="Page-1" stroke="none" stroke-width="1" fill="none" fill-rule="evenodd">
        <g id="cloud-(1)" fill-rule="nonzero" fill="url(#linearGradient-1)">
            <path d="M434.2,106.5 L392.9,106.5 C388.7,60.6 350.1,24.6 303.1,24.6 C288.8,24.6 274.8,28 262.1,34.5 C240.5,12.5 211.1,-8.07513778e-16 180.2,-8.07513778e-16 C119.6,-0.1 69.8,47.2 65.8,106.8 C28.9,110.8 0,142.2 0,180.2 C0,220.8 33.1,253.9 73.7,253.9 L434.2,253.9 C474.9,253.9 507.9,220.8 507.9,180.2 C507.9,139.6 474.8,106.5 434.2,106.5 Z M434.2,237.5 L73.7,237.5 C42.1,237.5 16.3,211.8 16.3,180.1 C16.3,148.4 42.1,122.8 73.7,122.8 L81.9,122.8 L81.9,114.6 C81.9,60.4 126,16.3 180.2,16.3 C208.6,16.3 235.6,28.6 254.3,50.1 L258.8,55.3 L264.7,51.7 C276.3,44.6 289.6,40.8 303.1,40.8 C343.8,40.8 376.8,73.9 376.8,114.5 L376.8,122.7 L434.2,122.7 C465.8,122.7 491.6,148.4 491.6,180.1 C491.6,211.8 465.9,237.5 434.2,237.5 Z" id="Shape"></path>
            <path d="M376.8,475.1 L376.8,327.6 L163.8,327.6 L163.8,475.1 L163.9,475.1 L237.6,475.1 L237.6,491.5 L213,491.5 L213,507.9 L237.6,507.9 L303.1,507.9 L327.7,507.9 L327.7,491.5 L303.1,491.5 L303.1,475.1 L376.8,475.1 Z M286.8,491.5 L254,491.5 L254,475.1 L286.8,475.1 L286.8,491.5 Z M237.7,458.7 L180.3,458.7 L180.3,344 L360.6,344 L360.6,458.7 L303.2,458.7 L237.7,458.7 Z" id="Shape"></path>
            <path d="M8.2,344 L8.2,507.9 L122.9,507.9 L122.9,344 L8.2,344 Z M106.5,491.5 L24.6,491.5 L24.6,360.4 L106.5,360.4 L106.5,491.5 Z" id="Shape"></path>
            <path d="M417.9,376.8 L417.9,507.9 L499.8,507.9 L499.8,376.8 L417.9,376.8 Z M434.2,393.2 L483.4,393.2 L483.4,458.7 L434.2,458.7 L434.2,393.2 Z M483.5,491.5 L434.3,491.5 L434.3,475.1 L483.5,475.1 L483.5,491.5 Z" id="Shape"></path>
            <rect id="Rectangle-path" x="57.4" y="466.9" width="16.4" height="16.4"></rect>
            <polygon id="Shape" points="155.7 270.3 155.7 286.7 57.4 286.7 57.4 327.6 73.7 327.6 73.7 303.1 172.1 303.1 172.1 270.3"></polygon>
            <polygon id="Shape" points="368.7 286.7 368.7 270.3 352.3 270.3 352.3 303.1 450.6 303.1 450.6 327.6 467 327.6 467 286.7"></polygon>
            <rect id="Rectangle-path" x="262.2" y="270.3" width="16.4" height="49.2"></rect>
        </g>
    </g>
</svg>