<?xml version="1.0" encoding="UTF-8"?>
<svg width="512px" height="512px" viewBox="0 0 512 512" version="1.1" xmlns="http://www.w3.org/2000/svg" xmlns:xlink="http://www.w3.org/1999/xlink">
    <!-- Generator: Sketch 47.1 (45422) - http://www.bohemiancoding.com/sketch -->
    <title>network (1)</title>
    <desc>Created with Sketch.</desc>
    <defs>
        <linearGradient x1="13.9030612%" y1="50%" x2="100%" y2="50%" id="linearGradient-1">
            <stop stop-color="#66C23A" offset="0%"></stop>
            <stop stop-color="#5FB636" offset="100%"></stop>
            <stop stop-color="#77D9B1" offset="100%"></stop>
            <stop stop-color="#4BD47F" offset="100%"></stop>
        </linearGradient>
    </defs>
    <g id="Page-1" stroke="none" stroke-width="1" fill="none" fill-rule="evenodd">
        <g id="network-(1)" fill-rule="nonzero" fill="url(#linearGradient-1)">
            <path d="M436,306 C430.48,306 426,310.48 426,316 C426,321.52 430.48,326 436,326 C441.52,326 446,321.52 446,316 C446,310.48 441.52,306 436,306 Z" id="Shape"></path>
            <path d="M256,306 C250.48,306 246,310.48 246,316 C246,321.52 250.48,326 256,326 C261.52,326 266,321.52 266,316 C266,310.48 261.52,306 256,306 Z" id="Shape"></path>
            <path d="M76,306 C70.48,306 66,310.48 66,316 C66,321.52 70.48,326 76,326 C81.52,326 86,321.52 86,316 C86,310.48 81.52,306 76,306 Z" id="Shape"></path>
            <path d="M316,366 L266,366 L266,356 C266,350.478 261.522,346 256,346 C250.478,346 246,350.478 246,356 L246,366 L196,366 C190.477,366 186,370.478 186,376 L186,502 C186,507.522 190.477,512 196,512 L316,512 C321.522,512 326,507.522 326,502 L326,376 C326,370.478 321.522,366 316,366 Z M306,492 L206,492 L206,386 L306,386 L306,492 Z" id="Shape"></path>
            <path d="M502,366 L449,366 L449,356 C449,350.478 444.522,346 439,346 C433.478,346 429,350.478 429,356 L429,366 L376,366 C370.478,366 366,370.478 366,376 L366,502 C366,507.522 370.478,512 376,512 L502,512 C507.522,512 512,507.522 512,502 L512,376 C512,370.478 507.522,366 502,366 Z M492,492 L386,492 L386,386 L492,386 L492,492 Z" id="Shape"></path>
            <path d="M136,366 L83,366 L83,356 C83,350.478 78.523,346 73,346 C67.477,346 63,350.478 63,356 L63,366 L10,366 C4.477,366 0,370.478 0,376 L0,502 C0,507.522 4.477,512 10,512 L136,512 C141.523,512 146,507.522 146,502 L146,376 C146,370.478 141.523,366 136,366 Z M126,492 L20,492 L20,386 L126,386 L126,492 Z" id="Shape"></path>
            <path d="M93,406 L53,406 C47.477,406 43,410.478 43,416 C43,421.522 47.477,426 53,426 L93,426 C98.523,426 103,421.522 103,416 C103,410.478 98.523,406 93,406 Z" id="Shape"></path>
            <path d="M93,449 L53,449 C47.477,449 43,453.478 43,459 C43,464.522 47.477,469 53,469 L93,469 C98.523,469 103,464.522 103,459 C103,453.478 98.523,449 93,449 Z" id="Shape"></path>
            <path d="M276,406 L236,406 C230.477,406 226,410.478 226,416 C226,421.522 230.477,426 236,426 L276,426 C281.522,426 286,421.522 286,416 C286,410.478 281.522,406 276,406 Z" id="Shape"></path>
            <path d="M276,449 L236,449 C230.477,449 226,453.478 226,459 C226,464.522 230.477,469 236,469 L276,469 C281.522,469 286,464.522 286,459 C286,453.478 281.522,449 276,449 Z" id="Shape"></path>
            <path d="M459,406 L419,406 C413.478,406 409,410.478 409,416 C409,421.522 413.478,426 419,426 L459,426 C464.522,426 469,421.522 469,416 C469,410.478 464.522,406 459,406 Z" id="Shape"></path>
            <path d="M459,449 L419,449 C413.478,449 409,453.478 409,459 C409,464.522 413.478,469 419,469 L459,469 C464.522,469 469,464.522 469,459 C469,453.478 464.522,449 459,449 Z" id="Shape"></path>
            <path d="M416,243 L266,243 L266,220 L276,220 C281.522,220 286,215.522 286,210 L286,183.825 C292.911,181.054 299.277,177.418 305.037,172.952 L327.599,185.98 C329.897,187.306 332.625,187.668 335.188,186.979 C337.75,186.292 339.934,184.617 341.26,182.32 L361.26,147.679 C364.022,142.897 362.383,136.781 357.601,134.019 L335.128,121.042 C335.713,117.231 336,113.577 336,110 C336,106.423 335.713,102.769 335.128,98.957 L357.601,85.98 C362.383,83.218 364.022,77.102 361.26,72.32 L341.26,37.679 C339.934,35.382 337.749,33.706 335.188,33.02 C332.627,32.334 329.897,32.693 327.599,34.019 L305.037,47.047 C299.277,42.581 292.911,38.945 286,36.174 L286,10 C286,4.478 281.522,0 276,0 L236,0 C230.477,0 226,4.478 226,10 L226,36.188 C219.139,38.96 212.716,42.63 206.981,47.054 L184.399,34.019 C179.617,31.26 173.501,32.897 170.74,37.68 L150.74,72.321 C147.979,77.103 149.617,83.219 154.4,85.981 L176.872,98.958 C176.287,102.767 176,106.422 176,110 C176,113.578 176.287,117.233 176.872,121.043 L154.4,134.02 C149.617,136.782 147.979,142.898 150.74,147.68 L170.74,182.321 C173.501,187.103 179.618,188.742 184.399,185.982 L206.981,172.947 C212.716,177.371 219.139,181.041 226,183.813 L226,210 C226,215.522 230.477,220 236,220 L246,220 L246,243 L96,243 C79.458,243 66,256.458 66,273 C66,278.522 70.477,283 76,283 C81.523,283 86,278.522 86,273 C86,267.486 90.486,263 96,263 L246,263 L246,273 C246,278.522 250.478,283 256,283 C261.522,283 266,278.522 266,273 L266,263 L416,263 C421.514,263 426,267.486 426,273 C426,278.522 430.478,283 436,283 C441.522,283 446,278.522 446,273 C446,256.458 432.542,243 416,243 Z M246.001,200 L246.001,176.74 C246,172.328 243.108,168.438 238.884,167.165 C229.675,164.392 221.625,159.791 214.958,153.491 C211.746,150.456 206.919,149.889 203.091,152.098 L183.061,163.661 L173.061,146.339 L193.061,134.79 C196.892,132.578 198.814,128.112 197.788,123.81 C196.584,118.768 196,114.25 196,110 C196,105.75 196.584,101.232 197.787,96.19 C198.813,91.887 196.891,87.421 193.06,85.21 L173.06,73.661 L183.06,56.339 L203.09,67.902 C206.919,70.111 211.743,69.545 214.957,66.509 C221.624,60.209 229.673,55.609 238.883,52.835 C243.108,51.563 245.999,47.672 245.999,43.26 L245.999,20 L265.999,20 L265.999,43.26 C265.999,47.672 268.891,51.563 273.115,52.835 C282.321,55.608 290.376,60.21 297.055,66.513 C300.269,69.546 305.091,70.111 308.919,67.901 L328.938,56.341 L338.938,73.661 L318.938,85.21 C315.109,87.422 313.186,91.887 314.211,96.189 C315.415,101.234 316,105.752 316,110 C316,114.248 315.415,118.766 314.213,123.812 C313.188,128.114 315.11,132.579 318.94,134.791 L338.94,146.34 L328.94,163.66 L308.921,152.1 C305.094,149.89 300.271,150.454 297.057,153.488 C290.377,159.791 282.323,164.392 273.117,167.166 C268.892,168.438 266.001,172.329 266.001,176.741 L266.001,200 L246.001,200 Z" id="Shape"></path>
            <path d="M256,70 C233.944,70 216,87.944 216,110 C216,132.056 233.944,150 256,150 C278.056,150 296,132.056 296,110 C296,87.944 278.056,70 256,70 Z M256,130 C244.972,130 236,121.028 236,110 C236,98.972 244.972,90 256,90 C267.028,90 276,98.972 276,110 C276,121.028 267.028,130 256,130 Z" id="Shape"></path>
        </g>
    </g>
</svg>